<svg xmlns="http://www.w3.org/2000/svg" width="375" viewBox="0 0 375 375" height="375" version="1.0"><defs><clipPath id="a"><path d="M 211 166 L 228 166 L 228 196.53125 L 211 196.53125 Z M 211 166"/></clipPath><clipPath id="b"><path d="M 152 176 L 166 176 L 166 196.53125 L 152 196.53125 Z M 152 176"/></clipPath><clipPath id="c"><path d="M 172 74.28125 L 208 74.28125 L 208 151 L 172 151 Z M 172 74.28125"/></clipPath><clipPath id="d"><path d="M 112.5 74.28125 L 173 74.28125 L 173 176 L 112.5 176 Z M 112.5 74.28125"/></clipPath><clipPath id="e"><path d="M 233 74.28125 L 262.5 74.28125 L 262.5 129 L 233 129 Z M 233 74.28125"/></clipPath></defs><path fill="#FFF" d="M-37.5 -37.5H412.5V412.5H-37.5z"/><path fill="#FFF" d="M-37.5 -37.5H412.5V412.5H-37.5z"/><path fill="#EFEBEC" d="M-37.5 -37.5H412.5V412.5H-37.5z"/><path fill="#545454" d="M 237.199219 123.664062 C 237.1875 123.417969 237.167969 123.171875 237.15625 122.925781 C 236.996094 120.101562 236.761719 117.296875 236.191406 114.558594 C 235.015625 108.589844 232.550781 102.90625 229.183594 97.8125 C 225.789062 92.765625 221.585938 88.164062 216.273438 85.253906 C 210.976562 82.300781 204.988281 80.566406 198.921875 80.042969 C 198.515625 80.011719 198.097656 79.988281 197.691406 79.957031 C 197.488281 80.382812 197.335938 80.867188 197.25 81.402344 C 197.488281 81.421875 197.722656 81.445312 197.957031 81.476562 C 203.550781 82.203125 209.027344 84.117188 213.730469 87.328125 C 216.066406 88.921875 218.191406 90.945312 219.949219 93.117188 C 221.738281 95.289062 223.332031 97.609375 224.707031 100.0625 C 227.460938 104.941406 229.410156 110.300781 230.351562 115.832031 C 230.835938 118.601562 231.050781 121.394531 231.175781 124.15625 C 231.304688 126.925781 231.316406 129.707031 231.21875 132.492188 C 231.113281 135.261719 230.929688 138.042969 230.523438 140.816406 C 230.128906 143.574219 229.527344 146.3125 228.753906 149 C 227.160156 154.371094 224.972656 159.496094 222.25 164.375 C 222.058594 164.71875 221.855469 165.058594 221.652344 165.390625 C 221.457031 165.722656 221.253906 166.054688 221.050781 166.386719 C 219.992188 168.109375 218.832031 169.789062 217.503906 171.328125 C 215.671875 173.480469 213.570312 175.417969 211.257812 177.054688 C 211.140625 177.140625 211.019531 177.203125 210.902344 177.289062 C 210.65625 177.460938 210.410156 177.621094 210.152344 177.78125 C 205.707031 180.636719 200.421875 182.007812 195.257812 182.265625 C 192.441406 182.425781 189.621094 182.296875 186.847656 181.976562 C 185.453125 181.816406 184.070312 181.589844 182.699219 181.332031 C 182.011719 181.203125 181.328125 181.066406 180.640625 180.917969 L 180.128906 180.796875 L 179.871094 180.746094 C 179.796875 180.734375 179.613281 180.679688 179.484375 180.636719 C 178.894531 180.464844 178.328125 180.101562 177.941406 179.8125 C 178.082031 179.441406 178.253906 179 178.5 178.582031 C 178.617188 178.378906 178.757812 178.175781 178.894531 177.996094 L 179.195312 177.597656 C 179.527344 177.140625 179.882812 176.699219 180.179688 176.21875 C 180.824219 175.289062 181.402344 174.304688 181.949219 173.296875 C 183.03125 171.296875 183.929688 169.179688 184.691406 167.019531 C 186.214844 162.683594 187.179688 158.148438 187.863281 153.570312 L 187.960938 152.9375 L 188.582031 152.796875 L 188.648438 152.789062 C 191.519531 152.175781 194.316406 151.234375 196.917969 149.910156 C 198.164062 149.265625 199.339844 148.527344 200.464844 147.707031 C 200.710938 147.523438 200.949219 147.332031 201.195312 147.148438 C 202.160156 146.398438 203.089844 145.597656 203.9375 144.71875 C 207.011719 141.574219 209.390625 137.796875 210.957031 133.699219 C 211.128906 133.238281 211.277344 132.78125 211.429688 132.308594 C 211.738281 131.367188 212.019531 130.425781 212.242188 129.460938 C 212.253906 129.257812 212.222656 129.109375 212.167969 129.046875 C 212.125 128.980469 211.996094 128.894531 211.855469 128.886719 C 211.726562 128.863281 211.460938 128.917969 211.351562 128.980469 C 211.246094 129.054688 211.246094 129.046875 211.226562 129.195312 L 211.214844 129.269531 C 211.117188 129.707031 211 130.136719 210.894531 130.574219 C 210.765625 131.089844 210.613281 131.59375 210.453125 132.085938 C 209.917969 133.765625 209.265625 135.402344 208.4375 136.964844 C 207.152344 139.382812 205.546875 141.628906 203.671875 143.628906 C 202.8125 144.550781 201.871094 145.40625 200.882812 146.1875 C 200.648438 146.378906 200.402344 146.558594 200.15625 146.742188 C 199.203125 147.449219 198.203125 148.113281 197.175781 148.691406 C 194.765625 150.039062 192.160156 151.023438 189.503906 151.695312 L 188.175781 152.027344 L 188.355469 150.660156 L 188.367188 150.617188 C 189.097656 145.339844 189.480469 140 189.75 134.664062 L 190.574219 118.582031 C 190.597656 118.152344 190.640625 117.714844 190.660156 117.285156 C 190.703125 116.503906 190.757812 115.734375 190.820312 114.953125 C 191.152344 110.769531 191.679688 106.621094 192.484375 102.457031 C 192.761719 101.109375 193.125 99.773438 193.617188 98.457031 C 194.101562 97.140625 194.699219 95.855469 195.527344 94.667969 C 196.210938 93.664062 197.078125 92.742188 198.085938 91.992188 C 198.269531 91.855469 198.453125 91.714844 198.644531 91.597656 C 198.707031 91.554688 198.773438 91.523438 198.835938 91.492188 C 199.652344 91.007812 200.542969 90.667969 201.453125 90.453125 C 201.292969 90.324219 201.121094 90.238281 200.90625 90.195312 C 200.488281 90.097656 199.707031 90.25 199.039062 90.367188 C 198.871094 90.398438 198.699219 90.453125 198.527344 90.507812 C 198.246094 90.582031 197.96875 90.667969 197.703125 90.761719 C 196.84375 91.074219 196.039062 91.492188 195.300781 92.027344 C 193.039062 93.640625 191.464844 96.144531 190.339844 98.796875 C 189.300781 101.214844 188.636719 103.773438 188.066406 106.417969 C 188.003906 106.703125 187.9375 106.984375 187.886719 107.261719 C 187.820312 107.550781 187.777344 107.828125 187.714844 108.117188 C 187.167969 110.761719 186.664062 113.402344 186.257812 116.066406 C 185.433594 121.984375 184.777344 127.964844 184.027344 133.914062 L 181.691406 151.792969 L 181.585938 152.59375 L 180.75 152.585938 C 178.53125 152.550781 176.3125 152.273438 174.136719 151.769531 C 173.859375 151.707031 173.582031 151.632812 173.300781 151.558594 C 172.777344 151.417969 172.261719 151.269531 171.746094 151.109375 C 171.46875 151.023438 171.203125 150.925781 170.933594 150.828125 C 168.714844 150.046875 166.59375 149.019531 164.644531 147.714844 C 162.273438 146.144531 160.101562 144.261719 158.289062 142.054688 C 156.980469 140.472656 155.855469 138.75 154.914062 136.929688 C 154.550781 136.226562 154.195312 135.519531 153.882812 134.78125 C 152.757812 132.167969 152.019531 129.429688 151.539062 126.660156 C 151.484375 126.316406 151.429688 125.976562 151.386719 125.632812 C 151.023438 123.191406 150.832031 120.730469 150.882812 118.261719 C 151.011719 112.621094 152.46875 107.003906 155.09375 102.007812 C 156.414062 99.515625 157.945312 97.160156 159.722656 94.957031 C 161.503906 92.765625 163.550781 90.785156 165.8125 89.074219 C 169.796875 86.054688 174.425781 84 179.214844 82.761719 C 179.054688 82.449219 178.894531 82.148438 178.722656 81.871094 C 173.496094 83.316406 168.523438 85.648438 164.128906 88.816406 C 159.230469 92.410156 155.007812 96.980469 152.105469 102.308594 C 150.625 104.960938 149.492188 107.796875 148.644531 110.707031 C 148.300781 111.851562 148.035156 113.007812 147.796875 114.171875 C 147.734375 114.496094 147.660156 114.816406 147.59375 115.136719 C 147.539062 115.425781 147.507812 115.726562 147.464844 116.011719 C 147.285156 117.222656 147.144531 118.441406 147.058594 119.652344 C 146.640625 125.707031 147.550781 131.871094 150.261719 137.285156 C 151.878906 140.621094 154.132812 143.640625 156.863281 146.121094 C 157.261719 146.484375 157.679688 146.828125 158.097656 147.160156 C 159.476562 148.28125 160.945312 149.289062 162.519531 150.125 C 164.964844 151.40625 167.589844 152.296875 170.300781 152.882812 C 170.578125 152.949219 170.859375 153.011719 171.148438 153.078125 C 171.683594 153.183594 172.230469 153.257812 172.765625 153.34375 C 173.054688 153.386719 173.34375 153.429688 173.632812 153.460938 C 175.777344 153.730469 177.964844 153.835938 180.128906 153.78125 L 181.296875 153.75 L 181.070312 154.894531 C 180.277344 158.90625 179.300781 162.910156 177.964844 166.804688 C 176.613281 170.6875 174.910156 174.519531 172.445312 177.929688 L 171.09375 178.101562 C 171.167969 178.15625 171.203125 178.175781 171.222656 178.1875 L 171.191406 178.175781 L 171.050781 178.125 L 170.742188 178.015625 L 170.097656 177.800781 L 168.789062 177.386719 L 166.785156 176.742188 L 166.089844 176.519531 L 165.960938 176.476562 L 163.496094 175.714844 L 160.914062 175.019531 C 160.046875 174.796875 159.09375 174.625 158.179688 174.421875 C 157.292969 174.230469 156.414062 174.035156 155.589844 173.972656 L 152.84375 173.867188 L 151.71875 173.886719 L 150.820312 173.90625 L 150.1875 173.917969 C 148.042969 174.113281 145.921875 174.667969 144.390625 175.929688 C 143.652344 176.53125 142.953125 177.417969 142.429688 178.273438 C 142.171875 178.703125 141.96875 179.152344 141.851562 179.578125 C 141.785156 179.792969 141.765625 180.007812 141.753906 180.199219 C 141.742188 180.304688 141.753906 180.390625 141.765625 180.5 L 141.808594 180.875 C 141.945312 181.859375 142.300781 182.808594 142.859375 183.589844 C 143.4375 184.394531 144.199219 185.109375 145.054688 185.675781 C 146.789062 186.8125 148.878906 187.464844 151.035156 187.804688 C 152.460938 188.019531 153.925781 188.117188 155.394531 188.136719 L 154.902344 186.617188 C 153.1875 186.628906 151.453125 186.523438 149.707031 186.160156 C 148.460938 185.878906 147.25 185.464844 146.105469 184.769531 C 145.535156 184.414062 144.980469 183.953125 144.53125 183.367188 C 144.078125 182.765625 143.78125 182.007812 143.714844 181.246094 C 143.574219 179.804688 144.132812 178.261719 145.226562 177.320312 C 146.308594 176.367188 147.636719 176.078125 148.828125 175.78125 C 149.640625 175.609375 150.433594 175.394531 151.257812 175.257812 C 151.546875 175.203125 151.835938 175.171875 152.128906 175.136719 C 152.246094 175.128906 152.363281 175.105469 152.492188 175.09375 C 153.734375 175.054688 154.945312 175.214844 156.136719 175.375 C 158.523438 175.726562 160.839844 176.273438 163.144531 176.882812 C 163.980469 177.105469 164.816406 177.351562 165.652344 177.597656 C 165.929688 177.683594 166.207031 177.75 166.484375 177.835938 C 167.652344 178.1875 168.8125 178.550781 169.957031 178.925781 L 171.46875 179.417969 L 170.332031 180.53125 C 168.617188 182.210938 166.65625 183.699219 164.449219 184.757812 L 163.65625 187.453125 C 163.859375 187.410156 164.074219 187.378906 164.277344 187.335938 C 168.597656 186.394531 172.710938 184.402344 175.960938 181.410156 L 176.226562 181.164062 L 176.589844 181.269531 C 182.515625 182.96875 188.667969 183.921875 194.765625 183.707031 C 200.316406 183.496094 205.886719 182.351562 210.871094 179.941406 C 211.128906 179.8125 211.394531 179.6875 211.652344 179.546875 C 211.855469 179.441406 212.0625 179.355469 212.253906 179.246094 C 216.101562 177.140625 219.582031 174.378906 222.53125 171.117188 C 223.042969 170.546875 223.546875 169.960938 224.019531 169.351562 C 224.585938 168.644531 225.132812 167.917969 225.648438 167.167969 C 226.484375 165.96875 227.277344 164.726562 228.039062 163.476562 C 228.714844 162.351562 229.34375 161.21875 229.957031 160.0625 C 231.519531 157.097656 232.882812 154.019531 234.027344 150.871094 C 235.058594 147.992188 235.851562 145.042969 236.386719 142.035156 C 236.75 140.054688 236.964844 138.042969 237.113281 136.019531 C 237.1875 134.984375 237.253906 133.945312 237.296875 132.90625 C 237.308594 132.714844 237.308594 132.523438 237.316406 132.332031 C 237.394531 130.0625 237.394531 127.792969 237.316406 125.535156 C 237.253906 124.894531 237.230469 124.273438 237.199219 123.664062 Z M 237.199219 123.664062"/><g clip-path="url(#a)"><path fill="#545454" d="M 223.300781 171.597656 L 222.808594 172.121094 C 219.894531 175.265625 216.464844 177.964844 212.671875 180.050781 C 212.425781 180.1875 212.167969 180.304688 211.910156 180.433594 L 217.097656 196.527344 L 218.167969 196.527344 L 227.03125 166.71875 C 226.816406 167.039062 226.601562 167.371094 226.378906 167.691406 C 225.445312 169.050781 224.414062 170.355469 223.300781 171.597656 Z M 223.300781 171.597656"/></g><g clip-path="url(#b)"><path fill="#545454" d="M 155.996094 176.292969 C 154.933594 176.144531 153.714844 175.984375 152.511719 176.027344 C 152.480469 176.027344 152.449219 176.027344 152.417969 176.039062 L 152.929688 177.632812 L 155.523438 185.6875 L 155.824219 186.609375 L 156.316406 188.148438 L 156.617188 189.078125 L 157.539062 191.945312 L 159.007812 196.515625 L 160.078125 196.515625 L 161.351562 192.191406 L 162.402344 188.609375 L 162.691406 187.613281 L 163.398438 185.207031 L 163.742188 184.03125 L 164.996094 179.761719 C 164.941406 179.769531 164.878906 179.78125 164.824219 179.792969 C 164.890625 179.78125 164.941406 179.761719 165.007812 179.738281 L 165.382812 178.464844 C 164.535156 178.21875 163.699219 177.984375 162.894531 177.769531 C 160.21875 177.074219 158.03125 176.605469 155.996094 176.292969 Z M 155.996094 176.292969"/></g><path fill="#545454" d="M 207.601562 136.511719 C 208.609375 134.621094 209.382812 132.578125 209.949219 130.445312 L 198.367188 92.902344 C 197.59375 93.511719 196.898438 94.273438 196.285156 95.171875 C 195.578125 96.1875 194.992188 97.363281 194.488281 98.753906 C 194.035156 99.953125 193.671875 101.257812 193.382812 102.628906 C 192.492188 107.238281 191.902344 112.066406 191.582031 117.320312 L 200.574219 145.222656 C 201.429688 144.515625 202.246094 143.777344 202.984375 142.988281 C 204.816406 141.007812 206.371094 138.824219 207.601562 136.511719 Z M 207.601562 136.511719"/><g clip-path="url(#c)"><path fill="#545454" d="M 194.742188 91.234375 C 195.578125 90.632812 196.480469 90.175781 197.433594 89.832031 C 196.875 87.851562 196.511719 86.128906 196.351562 84.644531 C 196.351562 84.632812 196.351562 84.621094 196.351562 84.609375 C 196.320312 84.320312 196.296875 84.03125 196.277344 83.753906 C 196.253906 83.464844 196.253906 83.1875 196.253906 82.921875 C 196.253906 82.683594 196.277344 82.460938 196.285156 82.226562 C 196.308594 81.902344 196.339844 81.59375 196.394531 81.292969 C 196.480469 80.78125 196.609375 80.308594 196.78125 79.871094 C 196.910156 79.539062 197.070312 79.238281 197.25 78.960938 C 197.765625 78.160156 198.472656 77.539062 199.382812 77.132812 C 201.042969 76.382812 203.734375 75.878906 207.570312 75.613281 L 207.570312 74.285156 C 202.910156 74.585938 196.117188 74.734375 187.339844 74.734375 C 181.210938 74.734375 176.140625 74.585938 172.273438 74.308594 L 172.273438 75.667969 C 174.953125 76.125 177.234375 77.847656 179.109375 80.792969 C 179.28125 81.058594 179.441406 81.335938 179.601562 81.625 C 179.761719 81.914062 179.933594 82.226562 180.085938 82.535156 C 180.222656 82.8125 180.363281 83.101562 180.503906 83.402344 C 181.058594 84.621094 186.632812 101.578125 186.632812 101.578125 L 172.027344 150.207031 C 172.539062 150.371094 173.054688 150.519531 173.570312 150.660156 L 187.296875 104.050781 C 187.296875 104.050781 188.59375 100.425781 189.460938 98.402344 C 190.84375 95.160156 192.621094 92.753906 194.742188 91.234375 Z M 194.742188 91.234375"/></g><g clip-path="url(#d)"><path fill="#545454" d="M 165.222656 172.828125 L 157.398438 147.789062 C 154.097656 145.082031 151.34375 141.628906 149.4375 137.691406 C 146.824219 132.46875 145.675781 126.210938 146.136719 119.585938 C 146.253906 117.929688 146.4375 116.378906 146.683594 114.964844 C 146.738281 114.675781 146.800781 114.367188 146.867188 114.054688 L 139.859375 91.617188 C 138.59375 87.648438 137.980469 84.738281 137.980469 82.75 C 137.980469 80.425781 138.742188 78.671875 140.234375 77.527344 C 141.484375 76.574219 143.425781 75.953125 146.136719 75.65625 L 146.136719 74.308594 C 142.152344 74.597656 136.480469 74.746094 129.238281 74.746094 C 122.519531 74.746094 116.902344 74.597656 112.5 74.308594 L 112.5 75.65625 C 117.773438 76.320312 121.609375 80.289062 123.933594 87.476562 L 151.410156 172.957031 L 152.8125 172.921875 L 155.609375 173.03125 C 156.542969 173.105469 157.484375 173.296875 158.375 173.5 C 158.695312 173.578125 159.027344 173.640625 159.347656 173.703125 C 159.960938 173.832031 160.558594 173.960938 161.140625 174.109375 L 163.730469 174.816406 L 166.207031 175.597656 L 172.496094 154.253906 C 171.953125 154.167969 171.414062 154.070312 170.878906 153.964844 Z M 165.222656 172.828125"/></g><g clip-path="url(#e)"><path fill="#545454" d="M 251.109375 74.757812 C 245.066406 74.757812 238.988281 74.597656 233.042969 74.296875 L 233.042969 75.613281 C 237.757812 75.828125 241.152344 76.703125 243.40625 78.308594 C 245.910156 80.085938 247.1875 83.113281 247.1875 87.308594 C 247.1875 91.117188 246.277344 95.984375 244.476562 101.761719 L 238.089844 122.828125 C 238.101562 123.085938 238.121094 123.351562 238.132812 123.621094 C 238.21875 125.40625 238.261719 127.195312 238.261719 128.96875 L 249.394531 91.535156 C 251.933594 82.953125 256.347656 77.667969 262.5 75.835938 L 262.5 74.359375 C 259.371094 74.617188 255.535156 74.757812 251.109375 74.757812 Z M 251.109375 74.757812"/></g><path fill="#545454" d="M 216.777344 170.730469 C 218.113281 169.179688 219.367188 167.390625 220.664062 165.1875 L 211.375 135.089844 C 209.777344 138.910156 207.496094 142.410156 204.589844 145.363281 C 203.628906 146.347656 202.585938 147.253906 201.484375 148.089844 L 210.59375 176.367188 C 210.625 176.347656 210.65625 176.324219 210.6875 176.304688 C 212.929688 174.722656 214.976562 172.847656 216.777344 170.730469 Z M 216.777344 170.730469"/><g><g><g><path d="M 0.632812 0 L 3.882812 0 C 6.613281 0 8.375 -1.886719 8.359375 -4.503906 C 8.347656 -6.511719 7.007812 -8.683594 3.597656 -8.683594 L 0.632812 -8.683594 L 0.632812 -8.523438 C 1.003906 -8.410156 1.128906 -8.125 1.128906 -7.109375 L 1.128906 -1.574219 C 1.128906 -0.558594 1.003906 -0.273438 0.632812 -0.160156 Z M 2.144531 -1.089844 L 2.144531 -8.496094 L 2.988281 -8.496094 C 5.757812 -8.496094 7.230469 -6.488281 7.230469 -4.007812 C 7.230469 -1.414062 6.027344 -0.1875 3.859375 -0.1875 L 2.953125 -0.1875 C 2.269531 -0.1875 2.144531 -0.507812 2.144531 -1.089844 Z M 2.144531 -1.089844" transform="translate(97.483 222.654)"/></g></g></g><g><g><g><path d="M 0.632812 0 L 6.75 0 L 6.847656 -1.648438 L 6.710938 -1.675781 C 6.265625 -0.519531 5.507812 -0.1875 4.316406 -0.1875 L 2.703125 -0.1875 C 2.34375 -0.1875 2.144531 -0.382812 2.144531 -0.746094 L 2.144531 -4.550781 L 3.734375 -4.550781 C 5.148438 -4.550781 5.507812 -4.265625 5.65625 -3.710938 L 5.804688 -3.710938 L 5.804688 -5.582031 L 5.65625 -5.582031 C 5.507812 -5.023438 5.148438 -4.738281 3.734375 -4.738281 L 2.144531 -4.738281 L 2.144531 -8.496094 L 3.96875 -8.496094 C 5.234375 -8.496094 5.96875 -8.125 6.402344 -7.035156 L 6.539062 -7.070312 L 6.402344 -8.683594 L 0.632812 -8.683594 L 0.632812 -8.523438 C 1.003906 -8.410156 1.128906 -8.125 1.128906 -7.109375 L 1.128906 -1.574219 C 1.128906 -0.558594 1.003906 -0.273438 0.632812 -0.160156 Z M 0.632812 0" transform="translate(113.854 222.654)"/></g></g></g><g><g><g><path d="M 0.878906 -7.21875 L 3.785156 0.0625 L 4.132812 0.0625 L 6.945312 -7.21875 C 7.304688 -8.164062 7.617188 -8.410156 7.953125 -8.523438 L 7.953125 -8.683594 L 6.5625 -8.683594 L 6.5625 -8.523438 C 6.984375 -8.433594 7.035156 -8.027344 6.722656 -7.207031 L 4.367188 -1.078125 L 1.972656 -7.21875 C 1.601562 -8.164062 1.511719 -8.410156 1.886719 -8.523438 L 1.886719 -8.683594 L -0.0507812 -8.683594 L -0.0507812 -8.523438 C 0.210938 -8.410156 0.507812 -8.164062 0.878906 -7.21875 Z M 0.878906 -7.21875" transform="translate(128.538 222.654)"/></g></g></g><g><g><g><path d="M 0.632812 0 L 6.75 0 L 6.847656 -1.648438 L 6.710938 -1.675781 C 6.265625 -0.519531 5.507812 -0.1875 4.316406 -0.1875 L 2.703125 -0.1875 C 2.34375 -0.1875 2.144531 -0.382812 2.144531 -0.746094 L 2.144531 -4.550781 L 3.734375 -4.550781 C 5.148438 -4.550781 5.507812 -4.265625 5.65625 -3.710938 L 5.804688 -3.710938 L 5.804688 -5.582031 L 5.65625 -5.582031 C 5.507812 -5.023438 5.148438 -4.738281 3.734375 -4.738281 L 2.144531 -4.738281 L 2.144531 -8.496094 L 3.96875 -8.496094 C 5.234375 -8.496094 5.96875 -8.125 6.402344 -7.035156 L 6.539062 -7.070312 L 6.402344 -8.683594 L 0.632812 -8.683594 L 0.632812 -8.523438 C 1.003906 -8.410156 1.128906 -8.125 1.128906 -7.109375 L 1.128906 -1.574219 C 1.128906 -0.558594 1.003906 -0.273438 0.632812 -0.160156 Z M 0.632812 0" transform="translate(143.805 222.654)"/></g></g></g><g><g><g><path d="M 0.632812 0 L 6.402344 0 L 6.488281 -1.402344 L 6.351562 -1.425781 C 5.917969 -0.496094 5.371094 -0.199219 4.179688 -0.199219 L 2.703125 -0.199219 C 2.34375 -0.199219 2.144531 -0.398438 2.144531 -0.757812 L 2.144531 -7.109375 C 2.144531 -8.125 2.257812 -8.410156 2.640625 -8.523438 L 2.640625 -8.683594 L 0.632812 -8.683594 L 0.632812 -8.523438 C 1.003906 -8.410156 1.128906 -8.125 1.128906 -7.109375 L 1.128906 -1.574219 C 1.128906 -0.558594 1.003906 -0.273438 0.632812 -0.160156 Z M 0.632812 0" transform="translate(158.49 222.654)"/></g></g></g><g><g><g><path d="M 5.0625 0.125 C 7.144531 0.125 9.453125 -1.242188 9.453125 -4.304688 C 9.453125 -7.34375 7.15625 -8.78125 5.0625 -8.78125 C 2.429688 -8.78125 0.644531 -6.898438 0.644531 -4.355469 C 0.644531 -1.277344 2.953125 0.125 5.0625 0.125 Z M 1.636719 -5.074219 C 1.5625 -7.09375 2.667969 -8.496094 4.550781 -8.496094 C 6.773438 -8.496094 8.398438 -6.078125 8.484375 -3.484375 C 8.546875 -1.625 7.566406 -0.1875 5.582031 -0.1875 C 3.363281 -0.1875 1.722656 -2.582031 1.636719 -5.074219 Z M 1.636719 -5.074219" transform="translate(172.604 222.654)"/></g></g></g><g><g><g><path d="M 0.632812 0 L 2.640625 0 L 2.640625 -0.160156 C 2.257812 -0.273438 2.144531 -0.558594 2.144531 -1.574219 L 2.144531 -3.4375 L 3.027344 -3.4375 C 5.335938 -3.4375 6.539062 -4.589844 6.539062 -6.238281 C 6.539062 -7.441406 5.71875 -8.683594 3.152344 -8.683594 L 0.632812 -8.683594 L 0.632812 -8.523438 C 1.003906 -8.410156 1.128906 -8.125 1.128906 -7.109375 L 1.128906 -1.574219 C 1.128906 -0.558594 1.003906 -0.273438 0.632812 -0.160156 Z M 2.144531 -3.621094 L 2.144531 -8.472656 C 2.296875 -8.484375 2.492188 -8.496094 2.667969 -8.496094 C 4.664062 -8.496094 5.445312 -7.28125 5.445312 -5.953125 C 5.445312 -4.492188 4.589844 -3.621094 3.003906 -3.621094 Z M 2.144531 -3.621094" transform="translate(190.065 222.654)"/></g></g></g><g><g><g><path d="M 4.429688 -7.21875 L 5.558594 -4.476562 L 4.230469 -1.226562 L 1.933594 -7.207031 C 1.574219 -8.164062 1.488281 -8.410156 1.875 -8.523438 L 1.875 -8.683594 L -0.0507812 -8.683594 L -0.0507812 -8.523438 C 0.222656 -8.410156 0.507812 -8.164062 0.867188 -7.207031 L 3.609375 0 L 3.957031 0 L 5.667969 -4.207031 L 7.394531 0 L 7.742188 0 L 10.332031 -7.207031 C 10.679688 -8.148438 10.976562 -8.410156 11.324219 -8.523438 L 11.324219 -8.683594 L 9.925781 -8.683594 L 9.925781 -8.523438 C 10.347656 -8.433594 10.421875 -8.011719 10.121094 -7.207031 L 7.964844 -1.253906 L 6.289062 -5.308594 L 6.984375 -7.207031 C 7.332031 -8.148438 7.628906 -8.410156 7.976562 -8.523438 L 7.976562 -8.683594 L 6.613281 -8.683594 L 6.613281 -8.523438 C 7.019531 -8.433594 7.070312 -8.027344 6.761719 -7.207031 L 6.164062 -5.59375 L 5.496094 -7.230469 C 5.109375 -8.164062 5.011719 -8.410156 5.382812 -8.523438 L 5.382812 -8.683594 L 3.484375 -8.683594 L 3.484375 -8.523438 C 3.757812 -8.410156 4.054688 -8.164062 4.429688 -7.21875 Z M 4.429688 -7.21875" transform="translate(204.291 222.654)"/></g></g></g><g><g><g><path d="M 5.0625 0.125 C 7.144531 0.125 9.453125 -1.242188 9.453125 -4.304688 C 9.453125 -7.34375 7.15625 -8.78125 5.0625 -8.78125 C 2.429688 -8.78125 0.644531 -6.898438 0.644531 -4.355469 C 0.644531 -1.277344 2.953125 0.125 5.0625 0.125 Z M 1.636719 -5.074219 C 1.5625 -7.09375 2.667969 -8.496094 4.550781 -8.496094 C 6.773438 -8.496094 8.398438 -6.078125 8.484375 -3.484375 C 8.546875 -1.625 7.566406 -0.1875 5.582031 -0.1875 C 3.363281 -0.1875 1.722656 -2.582031 1.636719 -5.074219 Z M 1.636719 -5.074219" transform="translate(222.918 222.654)"/></g></g></g><g><g><g><path d="M 6.945312 0.0859375 C 7.195312 0.0859375 7.515625 0.0625 7.703125 0 L 7.703125 -0.148438 C 7.640625 -0.136719 7.578125 -0.136719 7.503906 -0.136719 C 7.082031 -0.136719 6.835938 -0.546875 6.238281 -2.035156 C 5.644531 -3.558594 5.410156 -4.316406 3.882812 -4.515625 C 5.496094 -4.703125 6.339844 -5.582031 6.339844 -6.75 C 6.339844 -7.851562 5.59375 -8.683594 3.078125 -8.683594 L 0.632812 -8.683594 L 0.632812 -8.523438 C 1.015625 -8.410156 1.128906 -8.125 1.128906 -7.109375 L 1.128906 -1.574219 C 1.128906 -0.558594 1.015625 -0.273438 0.632812 -0.160156 L 0.632812 0 L 2.640625 0 L 2.640625 -0.160156 C 2.257812 -0.273438 2.144531 -0.558594 2.144531 -1.574219 L 2.144531 -4.476562 L 2.941406 -4.476562 C 4.429688 -4.476562 4.527344 -3.609375 5.246094 -1.898438 C 5.792969 -0.609375 5.992188 0.0859375 6.945312 0.0859375 Z M 2.144531 -4.664062 L 2.144531 -8.472656 C 2.34375 -8.484375 2.542969 -8.496094 2.730469 -8.496094 C 4.566406 -8.496094 5.285156 -7.566406 5.285156 -6.464844 C 5.285156 -5.410156 4.613281 -4.664062 3.1875 -4.664062 Z M 2.144531 -4.664062" transform="translate(240.38 222.654)"/></g></g></g><g><g><g><path d="M 0.632812 0 L 2.640625 0 L 2.640625 -0.160156 C 2.257812 -0.273438 2.144531 -0.558594 2.144531 -1.574219 L 2.144531 -3.710938 L 3.0625 -4.652344 L 3.3125 -4.652344 C 4.566406 -4.6875 4.75 -3.933594 5.570312 -1.921875 C 6.164062 -0.472656 6.386719 0.0625 7.292969 0.0625 C 7.554688 0.0625 7.828125 0.0390625 8.039062 -0.0234375 L 8.039062 -0.1875 C 7.964844 -0.171875 7.902344 -0.171875 7.828125 -0.171875 C 7.429688 -0.171875 7.15625 -0.609375 6.523438 -2.195312 C 5.679688 -4.316406 5.394531 -4.988281 3.546875 -4.863281 L 3.261719 -4.851562 L 5.90625 -7.554688 C 6.613281 -8.285156 7.132812 -8.410156 7.53125 -8.523438 L 7.53125 -8.683594 L 5.804688 -8.683594 L 5.804688 -8.570312 C 6.289062 -8.496094 6.175781 -8.089844 5.394531 -7.28125 L 2.144531 -3.957031 L 2.144531 -7.109375 C 2.144531 -8.125 2.257812 -8.410156 2.640625 -8.523438 L 2.640625 -8.683594 L 0.632812 -8.683594 L 0.632812 -8.523438 C 1.003906 -8.410156 1.128906 -8.125 1.128906 -7.109375 L 1.128906 -1.574219 C 1.128906 -0.558594 1.003906 -0.273438 0.632812 -0.160156 Z M 0.632812 0" transform="translate(255.35 222.654)"/></g></g></g><g><g><g><path d="M 3.535156 0.125 C 5 0.125 6.4375 -0.820312 6.4375 -2.371094 C 6.4375 -3.769531 5.148438 -4.316406 3.769531 -4.863281 C 2.714844 -5.296875 1.4375 -5.769531 1.4375 -6.933594 C 1.4375 -7.988281 2.296875 -8.570312 3.300781 -8.570312 C 4.714844 -8.570312 5.582031 -7.804688 6.042969 -6.722656 L 6.164062 -6.761719 L 6.117188 -8.199219 C 5.632812 -8.460938 4.824219 -8.769531 3.695312 -8.769531 C 1.875 -8.769531 0.667969 -7.851562 0.667969 -6.402344 C 0.667969 -5.085938 1.601562 -4.566406 3.0625 -3.980469 C 4.105469 -3.558594 5.632812 -2.988281 5.632812 -1.75 C 5.632812 -0.746094 4.777344 -0.0976562 3.785156 -0.0976562 C 2.058594 -0.0976562 1.117188 -1.203125 0.632812 -2.503906 L 0.496094 -2.480469 L 0.558594 -0.757812 C 1.140625 -0.335938 2.234375 0.125 3.535156 0.125 Z M 3.535156 0.125" transform="translate(270.666 222.654)"/></g></g></g><g><g><g><path d="M 16.015625 -4.609375 C 15.964844 -4.726562 15.828125 -4.796875 15.707031 -4.746094 C 15.347656 -4.609375 14.988281 -4.488281 14.648438 -4.367188 C 14.628906 -4.367188 12.917969 -3.71875 10.964844 -3.21875 C 8.394531 -2.570312 6.59375 -2.433594 5.738281 -2.84375 C 5.535156 -2.945312 5.394531 -3.066406 5.308594 -3.21875 L 5.34375 -3.238281 C 6.082031 -3.941406 6.800781 -4.710938 7.210938 -5.652344 C 7.382812 -6.011719 7.332031 -6.5625 6.921875 -6.714844 C 6.507812 -6.851562 6.097656 -6.613281 5.789062 -6.371094 C 4.96875 -5.617188 4.640625 -4.472656 4.746094 -3.390625 C 3.890625 -2.792969 2.980469 -2.226562 1.9375 -2.003906 C 1.9375 -2.605469 2.175781 -3.152344 2.328125 -3.734375 C 2.433594 -4.042969 2.089844 -4.300781 1.816406 -4.195312 C 1.097656 -4.042969 0.460938 -3.664062 -0.207031 -3.390625 C 0.101562 -4.09375 0.582031 -4.695312 0.960938 -5.363281 C 1.113281 -5.652344 0.566406 -5.824219 0.496094 -5.5 C 0.0703125 -4.847656 -0.460938 -4.179688 -0.703125 -3.425781 C -0.753906 -3.273438 -0.855469 -2.722656 -0.101562 -2.894531 C 0.546875 -3.167969 1.164062 -3.496094 1.816406 -3.734375 C 1.644531 -3.117188 1.351562 -2.484375 1.523438 -1.851562 C 1.730469 -1.4375 2.261719 -1.542969 2.605469 -1.660156 C 3.441406 -1.953125 4.214844 -2.414062 4.933594 -2.914062 C 5.429688 -2.226562 6.371094 -2.125 7.125 -2.125 C 10.023438 -2.125 14.578125 -3.820312 14.816406 -3.921875 C 15.46875 -4.144531 15.863281 -4.300781 15.878906 -4.300781 C 16 -4.335938 16.070312 -4.488281 16.015625 -4.609375 Z M 6.800781 -6.320312 C 6.75 -5.257812 5.875 -4.488281 5.191406 -3.785156 C 5.257812 -4.796875 5.671875 -6.082031 6.800781 -6.320312 Z M 6.800781 -6.320312" transform="translate(106.186 251.14)"/></g></g></g><g><g><g><path d="M 8.925781 -4.609375 C 8.875 -4.726562 8.738281 -4.796875 8.617188 -4.746094 C 8.496094 -4.710938 7.179688 -4.230469 6.648438 -4.058594 C 5.105469 -3.496094 3.527344 -2.980469 1.882812 -2.84375 C 1.320312 -2.828125 0.667969 -2.84375 0.207031 -3.253906 C -0.0507812 -3.5625 0.207031 -3.992188 0.308594 -4.316406 C 1.183594 -4.589844 2.089844 -4.917969 2.808594 -5.535156 C 3.03125 -5.738281 3.253906 -6.046875 3.152344 -6.390625 C 2.980469 -6.785156 2.46875 -6.785156 2.125 -6.664062 C 1.320312 -6.390625 0.617188 -5.808594 0.171875 -5.085938 C -0.207031 -4.523438 -0.753906 -3.359375 -0.0703125 -2.828125 C 0.890625 -2.105469 2.160156 -2.347656 3.1875 -2.535156 C 3.90625 -2.671875 4.609375 -2.859375 5.308594 -3.066406 C 5.996094 -3.339844 8.71875 -4.230469 8.789062 -4.300781 C 8.90625 -4.335938 8.976562 -4.488281 8.925781 -4.609375 Z M 2.757812 -6.269531 C 2.261719 -5.550781 1.421875 -5.226562 0.632812 -4.949219 C 1.164062 -5.617188 1.882812 -6.234375 2.757812 -6.269531 Z M 2.757812 -6.269531" transform="translate(121.91 251.14)"/></g></g></g><g><g><g><path d="M 10.328125 -4.609375 C 10.277344 -4.746094 10.140625 -4.796875 10.023438 -4.761719 C 8.804688 -4.316406 7.691406 -3.921875 6.664062 -3.5625 C 5.277344 -3.152344 4.488281 -3.050781 3.820312 -3.050781 C 4.027344 -3.425781 4.351562 -3.835938 4.164062 -4.265625 C 3.820312 -4.660156 3.253906 -4.472656 2.84375 -4.335938 C 0.992188 -3.683594 -0.207031 -2.019531 -1.148438 -0.410156 C -0.90625 -1.695312 -0.445312 -2.929688 0.152344 -4.09375 C 1.988281 -4.96875 3.804688 -5.875 5.566406 -6.886719 C 6.320312 -7.347656 7.109375 -7.792969 7.761719 -8.410156 C 8.121094 -8.789062 8.480469 -9.234375 8.496094 -9.78125 C 8.53125 -10.210938 8.121094 -10.585938 7.691406 -10.605469 C 6.679688 -10.691406 5.738281 -10.191406 4.898438 -9.679688 C 3.460938 -8.71875 2.226562 -7.519531 1.097656 -6.21875 C -0.546875 -4.417969 -1.472656 -2.039062 -1.765625 0.375 C -1.765625 0.496094 -1.765625 0.824219 -1.523438 0.804688 C -1.25 0.769531 -1.046875 0.394531 -1.046875 0.394531 C -0.632812 -0.324219 -0.222656 -1.0625 0.308594 -1.714844 C 1.148438 -2.84375 2.328125 -3.871094 3.785156 -4.027344 C 3.597656 -3.683594 3.460938 -3.1875 3.015625 -3.082031 C 3.015625 -3.082031 2.089844 -2.996094 1.59375 -2.449219 C 1.320312 -2.105469 1.011719 -1.558594 1.421875 -1.234375 C 2.160156 -0.875 3.203125 -1.988281 3.511719 -2.585938 C 3.613281 -2.570312 3.734375 -2.570312 3.835938 -2.570312 C 4.417969 -2.570312 5.105469 -2.65625 6.132812 -2.914062 L 6.800781 -3.117188 C 8.652344 -3.734375 10.160156 -4.300781 10.191406 -4.300781 C 10.3125 -4.351562 10.382812 -4.488281 10.328125 -4.609375 Z M 3.511719 -8 C 4.558594 -8.890625 5.671875 -9.796875 7.039062 -10.089844 C 7.347656 -10.125 7.828125 -10.226562 8.015625 -9.882812 C 8.015625 -9.234375 7.433594 -8.769531 6.988281 -8.394531 C 5.003906 -6.972656 2.792969 -5.960938 0.632812 -4.847656 C 1.472656 -5.996094 2.46875 -7.039062 3.511719 -8 Z M 1.679688 -1.660156 C 1.523438 -2.382812 3.015625 -2.65625 3.015625 -2.65625 C 3.015625 -2.65625 1.78125 -1.199219 1.679688 -1.660156 Z M 1.679688 -1.660156" transform="translate(130.526 251.14)"/></g></g></g><g><g><g><path d="M 8.152344 -4.609375 C 8.121094 -4.746094 7.984375 -4.796875 7.847656 -4.761719 C 6.679688 -4.316406 5.585938 -3.941406 4.574219 -3.597656 C 3.546875 -3.273438 1.300781 -2.707031 0.152344 -2.964844 C 0.152344 -2.980469 -0.667969 -3.136719 -0.0351562 -3.941406 C 0.480469 -4.640625 1.183594 -5.207031 1.902344 -5.6875 C 2.398438 -5.996094 2.980469 -6.355469 3.597656 -6.183594 C 3.582031 -5.910156 3.425781 -5.328125 3.921875 -5.464844 C 4.300781 -5.894531 4.058594 -6.664062 3.460938 -6.714844 C 2.605469 -6.765625 1.851562 -6.269531 1.183594 -5.789062 C 0.460938 -5.226562 -0.292969 -4.625 -0.683594 -3.785156 C -0.839844 -3.476562 -0.824219 -3.066406 -0.597656 -2.808594 C -0.238281 -2.484375 0.292969 -2.398438 0.875 -2.414062 C 1.371094 -2.433594 1.96875 -2.484375 2.65625 -2.621094 C 3.390625 -2.757812 4.863281 -3.1875 4.863281 -3.1875 C 6.613281 -3.785156 8 -4.300781 8.015625 -4.300781 C 8.136719 -4.351562 8.207031 -4.488281 8.152344 -4.609375 Z M 8.152344 -4.609375" transform="translate(152.775 251.14)"/></g></g></g><g><g><g><path d="M 9.269531 -4.609375 C 9.214844 -4.726562 9.078125 -4.796875 8.960938 -4.746094 C 8.824219 -4.695312 7.964844 -4.386719 7.878906 -4.351562 C 4.933594 -3.304688 3.066406 -3.496094 2.175781 -3.734375 C 2.722656 -4.503906 2.84375 -5.652344 2.191406 -6.390625 C 1.660156 -7.039062 0.53125 -6.886719 0.121094 -6.167969 C -0.1875 -5.738281 -0.101562 -5.171875 0.0507812 -4.695312 C -0.460938 -4.195312 -1.011719 -3.683594 -1.300781 -2.996094 C -1.492188 -2.605469 -1.128906 -2.140625 -0.703125 -2.140625 C 0.273438 -2.074219 1.148438 -2.65625 1.796875 -3.324219 L 1.816406 -3.339844 C 2.226562 -3.203125 2.859375 -3.066406 3.75 -3.066406 C 4.726562 -3.066406 5.980469 -3.21875 7.554688 -3.734375 C 7.605469 -3.75 9.113281 -4.28125 9.128906 -4.300781 C 9.25 -4.335938 9.320312 -4.472656 9.269531 -4.609375 Z M 2.125 -5.429688 C 2.277344 -4.863281 1.96875 -4.351562 1.660156 -3.90625 C 1.234375 -4.09375 0.941406 -4.316406 0.703125 -4.589844 C 1.097656 -5.035156 0.824219 -5.191406 0.429688 -4.984375 C 0.1875 -6.476562 1.9375 -6.816406 2.125 -5.429688 Z M -0.90625 -2.671875 C -0.652344 -3.304688 -0.171875 -3.804688 0.308594 -4.28125 C 0.617188 -3.992188 0.960938 -3.734375 1.320312 -3.511719 C 0.703125 -2.980469 -0.0703125 -2.5 -0.90625 -2.671875 Z M -0.90625 -2.671875" transform="translate(160.637 251.14)"/></g></g></g><g><g><g><path d="M 11.015625 -4.609375 C 10.964844 -4.726562 10.828125 -4.796875 10.707031 -4.746094 C 8.824219 -4.058594 7.144531 -3.476562 5.722656 -3.03125 C 5.480469 -2.945312 5.257812 -2.894531 5.035156 -2.828125 C 4.164062 -2.605469 3.289062 -2.277344 2.382812 -2.347656 C 2.742188 -3.273438 3.511719 -3.921875 4.113281 -4.675781 C 4.367188 -4.933594 4.113281 -5.378906 3.75 -5.292969 C 2.449219 -5.140625 1.214844 -4.660156 0.0351562 -4.09375 C 0.597656 -4.832031 1.300781 -5.394531 1.953125 -6.046875 C 1.917969 -6.320312 1.679688 -6.425781 1.472656 -6.234375 C 0.597656 -5.480469 -0.292969 -4.675781 -0.824219 -3.632812 C -0.855469 -3.21875 -0.375 -3.289062 -0.152344 -3.441406 C 1.011719 -4.078125 2.277344 -4.539062 3.582031 -4.796875 C 3.03125 -4.179688 2.449219 -3.597656 2.074219 -2.878906 C 1.953125 -2.636719 1.832031 -2.296875 2.054688 -2.074219 C 2.414062 -1.730469 2.996094 -1.851562 3.441406 -1.917969 C 4.28125 -2.089844 5.910156 -2.585938 5.910156 -2.585938 C 8.410156 -3.390625 10.84375 -4.28125 10.878906 -4.300781 C 10.996094 -4.335938 11.066406 -4.472656 11.015625 -4.609375 Z M 11.015625 -4.609375" transform="translate(169.595 251.14)"/></g></g></g><g><g><g><path d="M 10.296875 -4.625 C 10.246094 -4.746094 10.105469 -4.8125 9.96875 -4.761719 C 9.183594 -4.503906 8.207031 -4.113281 7.347656 -3.941406 C 5.960938 -3.613281 4.539062 -3.613281 3.117188 -3.476562 C 3.238281 -3.90625 3.425781 -4.539062 2.914062 -4.78125 C 2.074219 -4.96875 1.269531 -4.4375 0.410156 -4.488281 C 0.703125 -5.363281 1.371094 -6.097656 2.242188 -6.390625 C 2.175781 -6.148438 2.105469 -5.824219 2.46875 -5.789062 C 2.707031 -5.980469 2.929688 -6.304688 2.757812 -6.59375 C 2.519531 -6.921875 2.054688 -6.871094 1.730469 -6.714844 C 0.992188 -6.371094 0.410156 -5.722656 0.0703125 -4.96875 C -0.101562 -4.660156 -0.0507812 -4.128906 0.375 -4.042969 C 1.199219 -3.921875 1.96875 -4.351562 2.792969 -4.367188 C 2.742188 -4.113281 2.691406 -3.855469 2.636719 -3.597656 C 1.867188 -3.460938 0.992188 -3.1875 0.652344 -2.433594 C 0.496094 -2.089844 0.804688 -1.695312 1.164062 -1.714844 C 1.953125 -1.695312 2.414062 -2.449219 2.84375 -2.996094 C 4.640625 -3.066406 6.492188 -3.1875 8.238281 -3.648438 C 8.566406 -3.75 9.746094 -4.128906 10.140625 -4.300781 C 10.277344 -4.351562 10.328125 -4.488281 10.296875 -4.625 Z M 1.128906 -2.125 C 1.214844 -2.671875 1.796875 -2.859375 2.242188 -3.03125 C 1.96875 -2.621094 1.609375 -2.277344 1.128906 -2.125 Z M 1.128906 -2.125" transform="translate(180.3 251.14)"/></g></g></g><g><g><g><path d="M 12.128906 -4.625 C 12.078125 -4.746094 11.941406 -4.8125 11.804688 -4.761719 C 10.585938 -4.316406 8.394531 -3.5625 8.375 -3.5625 C 6.082031 -2.84375 3.390625 -2.226562 2.894531 -2.433594 C 2.964844 -2.722656 3.613281 -3.632812 4.25 -4.386719 C 4.265625 -4.386719 4.453125 -4.625 4.453125 -4.710938 C 4.453125 -5.105469 4.007812 -5.085938 3.734375 -5.003906 C 2.210938 -4.625 0.855469 -3.835938 -0.652344 -3.425781 C 0.0351562 -4.214844 0.824219 -4.898438 1.679688 -5.515625 C 1.832031 -5.859375 1.421875 -5.945312 1.214844 -5.773438 C 0.394531 -5.226562 -0.324219 -4.503906 -0.992188 -3.785156 C -1.148438 -3.597656 -1.40625 -3.375 -1.269531 -3.101562 C -1.113281 -2.773438 -0.703125 -2.945312 -0.429688 -2.980469 C 0.992188 -3.375 2.296875 -4.09375 3.71875 -4.503906 C 2.160156 -2.605469 2.382812 -2.277344 2.46875 -2.160156 C 2.570312 -2.019531 2.742188 -1.917969 3.203125 -1.917969 C 3.683594 -1.917969 4.472656 -2.019531 5.773438 -2.347656 C 6.0625 -2.414062 7.46875 -2.773438 8.566406 -3.117188 C 10.449219 -3.699219 11.957031 -4.300781 11.972656 -4.316406 C 12.113281 -4.351562 12.164062 -4.503906 12.128906 -4.625 Z M 12.128906 -4.625" transform="translate(190.27 251.14)"/></g></g></g><g><g><g><path d="M 12.007812 -4.609375 C 11.957031 -4.726562 11.820312 -4.796875 11.699219 -4.746094 C 5.722656 -2.65625 4.351562 -2.347656 1.558594 -2.003906 C 1.214844 -2.003906 -0.597656 -1.796875 -0.375 -2.671875 C -0.273438 -3.253906 -0.015625 -3.804688 0.34375 -4.265625 C 2.722656 -5.535156 5.15625 -6.75 7.296875 -8.429688 C 7.828125 -8.890625 8.445312 -9.351562 8.703125 -10.039062 C 8.839844 -10.347656 8.601562 -10.722656 8.273438 -10.742188 C 7.777344 -10.792969 7.296875 -10.605469 6.835938 -10.414062 C 4.007812 -9.078125 1.507812 -7.039062 -0.257812 -4.4375 C -0.683594 -3.734375 -0.855469 -3.273438 -0.875 -2.605469 C -0.875 -1.335938 0.753906 -1.507812 1.558594 -1.507812 C 4.503906 -1.765625 6.800781 -2.550781 6.835938 -2.570312 C 9.351562 -3.375 11.835938 -4.28125 11.855469 -4.300781 C 11.992188 -4.335938 12.042969 -4.472656 12.007812 -4.609375 Z M 6.613281 -9.765625 C 7.144531 -10.039062 7.691406 -10.261719 8.292969 -10.277344 C 7.878906 -9.4375 7.09375 -8.875 6.355469 -8.324219 C 4.625 -7.09375 2.757812 -6.0625 0.855469 -5.105469 C 2.382812 -7.074219 4.402344 -8.617188 6.613281 -9.765625 Z M 6.613281 -9.765625" transform="translate(202.07 251.14)"/></g></g></g><g><g><g><path d="M 12.007812 -4.609375 C 11.972656 -4.726562 11.835938 -4.796875 11.699219 -4.746094 C 5.738281 -2.65625 4.351562 -2.347656 1.558594 -2.003906 C 1.183594 -2.003906 -0.566406 -1.796875 -0.359375 -2.691406 C -0.257812 -3.253906 0.410156 -4.367188 0.410156 -4.367188 C 0.890625 -4.640625 1.234375 -4.847656 1.644531 -5.121094 C 2.707031 -5.824219 3.71875 -6.613281 4.640625 -7.503906 L 4.660156 -7.503906 L 7.023438 -7.382812 C 7.023438 -7.382812 7.039062 -7.382812 7.039062 -7.382812 C 7.160156 -7.382812 7.261719 -7.484375 7.28125 -7.625 C 7.28125 -7.761719 7.179688 -7.863281 7.039062 -7.878906 L 5.105469 -7.964844 C 5.414062 -8.394531 5.875 -8.839844 5.789062 -9.421875 C 5.6875 -9.882812 5.105469 -9.851562 4.761719 -9.714844 C 3.855469 -9.351562 3.152344 -8.632812 2.46875 -7.964844 C 1.78125 -7.914062 1.097656 -7.914062 0.410156 -7.777344 C 0.136719 -7.777344 0.015625 -7.519531 0.015625 -7.261719 C 0.667969 -7.332031 1.320312 -7.417969 1.96875 -7.453125 C 1.214844 -6.578125 0.53125 -5.652344 -0.0703125 -4.675781 C -0.480469 -3.992188 -0.824219 -3.410156 -0.855469 -2.605469 C -0.890625 -2.125 -0.515625 -1.679688 -0.0351562 -1.59375 C 2.019531 -1.011719 7.179688 -2.722656 6.851562 -2.570312 C 9.371094 -3.375 11.855469 -4.28125 11.871094 -4.300781 C 11.992188 -4.335938 12.058594 -4.488281 12.007812 -4.609375 Z M 5.378906 -9.351562 C 5.191406 -8.824219 4.832031 -8.394531 4.453125 -8 C 4.453125 -7.984375 4.4375 -7.984375 4.4375 -7.984375 C 4.007812 -8 3.597656 -8 3.1875 -8 C 3.820312 -8.566406 4.472656 -9.234375 5.378906 -9.351562 Z M 2.671875 -7.484375 C 3.101562 -7.484375 3.511719 -7.503906 3.941406 -7.503906 C 2.964844 -6.648438 1.953125 -5.875 0.855469 -5.191406 C 1.386719 -6.011719 2.003906 -6.785156 2.671875 -7.484375 Z M 2.671875 -7.484375" transform="translate(213.77 251.14)"/></g></g></g><g><g><g><path d="M 10.570312 -4.609375 C 10.535156 -4.746094 10.382812 -4.796875 10.261719 -4.761719 C 9.96875 -4.640625 9.40625 -4.453125 9.40625 -4.453125 C 7.382812 -3.664062 4.300781 -2.707031 3.785156 -2.964844 C 3.75 -2.980469 3.75 -2.996094 3.75 -3.015625 C 3.734375 -3.203125 3.941406 -3.5625 4.28125 -3.992188 C 4.640625 -4.351562 4.847656 -4.589844 5.363281 -5.226562 C 5.464844 -5.464844 5.035156 -5.5 4.898438 -5.515625 C 4.8125 -5.515625 4.746094 -5.515625 4.660156 -5.515625 C 4.695312 -5.996094 4.351562 -6.390625 3.890625 -6.492188 C 2.792969 -6.765625 1.730469 -6.132812 0.875 -5.5 C 0.359375 -5.085938 -0.238281 -4.710938 -0.515625 -4.09375 C -0.652344 -3.664062 -0.0859375 -3.527344 0.222656 -3.648438 C 1.660156 -4.007812 3.03125 -4.574219 4.523438 -4.949219 C 4.25 -4.695312 3.683594 -3.992188 3.683594 -3.992188 C 3.410156 -3.597656 3.238281 -3.21875 3.273438 -2.945312 C 3.289062 -2.773438 3.390625 -2.621094 3.5625 -2.535156 C 3.664062 -2.484375 3.835938 -2.449219 4.042969 -2.449219 C 5.308594 -2.449219 8.085938 -3.441406 9.214844 -3.871094 C 9.953125 -4.128906 10.414062 -4.300781 10.433594 -4.300781 C 10.519531 -4.335938 10.570312 -4.402344 10.585938 -4.488281 C 10.585938 -4.539062 10.585938 -4.574219 10.570312 -4.609375 Z M 4.113281 -5.34375 C 2.722656 -4.984375 1.40625 -4.4375 0.015625 -4.113281 C 0.769531 -4.882812 1.660156 -5.585938 2.691406 -5.960938 C 3.203125 -6.148438 4.402344 -6.183594 4.113281 -5.34375 Z M 4.113281 -5.34375" transform="translate(225.468 251.14)"/></g></g></g><g><g><g><path d="M 11.015625 -4.609375 C 10.964844 -4.726562 10.828125 -4.796875 10.707031 -4.746094 C 8.824219 -4.058594 7.144531 -3.476562 5.722656 -3.03125 C 5.480469 -2.945312 5.257812 -2.894531 5.035156 -2.828125 C 4.164062 -2.605469 3.289062 -2.277344 2.382812 -2.347656 C 2.742188 -3.273438 3.511719 -3.921875 4.113281 -4.675781 C 4.367188 -4.933594 4.113281 -5.378906 3.75 -5.292969 C 2.449219 -5.140625 1.214844 -4.660156 0.0351562 -4.09375 C 0.597656 -4.832031 1.300781 -5.394531 1.953125 -6.046875 C 1.917969 -6.320312 1.679688 -6.425781 1.472656 -6.234375 C 0.597656 -5.480469 -0.292969 -4.675781 -0.824219 -3.632812 C -0.855469 -3.21875 -0.375 -3.289062 -0.152344 -3.441406 C 1.011719 -4.078125 2.277344 -4.539062 3.582031 -4.796875 C 3.03125 -4.179688 2.449219 -3.597656 2.074219 -2.878906 C 1.953125 -2.636719 1.832031 -2.296875 2.054688 -2.074219 C 2.414062 -1.730469 2.996094 -1.851562 3.441406 -1.917969 C 4.28125 -2.089844 5.910156 -2.585938 5.910156 -2.585938 C 8.410156 -3.390625 10.84375 -4.28125 10.878906 -4.300781 C 10.996094 -4.335938 11.066406 -4.472656 11.015625 -4.609375 Z M 11.015625 -4.609375" transform="translate(235.728 251.14)"/></g></g></g><g><g><g><path d="M 8.152344 -4.609375 C 8.121094 -4.746094 7.984375 -4.796875 7.847656 -4.761719 C 6.679688 -4.316406 5.585938 -3.941406 4.574219 -3.597656 C 3.546875 -3.273438 1.300781 -2.707031 0.152344 -2.964844 C 0.152344 -2.980469 -0.667969 -3.136719 -0.0351562 -3.941406 C 0.480469 -4.640625 1.183594 -5.207031 1.902344 -5.6875 C 2.398438 -5.996094 2.980469 -6.355469 3.597656 -6.183594 C 3.582031 -5.910156 3.425781 -5.328125 3.921875 -5.464844 C 4.300781 -5.894531 4.058594 -6.664062 3.460938 -6.714844 C 2.605469 -6.765625 1.851562 -6.269531 1.183594 -5.789062 C 0.460938 -5.226562 -0.292969 -4.625 -0.683594 -3.785156 C -0.839844 -3.476562 -0.824219 -3.066406 -0.597656 -2.808594 C -0.238281 -2.484375 0.292969 -2.398438 0.875 -2.414062 C 1.371094 -2.433594 1.96875 -2.484375 2.65625 -2.621094 C 3.390625 -2.757812 4.863281 -3.1875 4.863281 -3.1875 C 6.613281 -3.785156 8 -4.300781 8.015625 -4.300781 C 8.136719 -4.351562 8.207031 -4.488281 8.152344 -4.609375 Z M 8.152344 -4.609375" transform="translate(246.433 251.14)"/></g></g></g><g><g><g><path d="M -4.882812 2.792969 C -4.863281 2.792969 -4.847656 2.792969 -4.847656 2.792969 C -3.785156 2.757812 -1.796875 1.40625 1.011719 -1.234375 C 1.335938 -1.542969 1.660156 -1.851562 1.96875 -2.140625 C 3.527344 -2.3125 5.070312 -2.398438 8.1875 -3.253906 C 10.140625 -3.785156 11.339844 -4.316406 11.390625 -4.335938 C 11.511719 -4.386719 11.5625 -4.523438 11.511719 -4.640625 C 11.460938 -4.761719 11.324219 -4.832031 11.1875 -4.78125 C 11.1875 -4.761719 9.988281 -4.25 8.050781 -3.71875 C 5.394531 -2.980469 3.835938 -2.808594 2.519531 -2.671875 C 3.890625 -4.042969 4.898438 -5.140625 4.917969 -5.15625 C 5.054688 -5.328125 4.917969 -5.636719 4.660156 -5.550781 C 2.859375 -4.882812 0.769531 -4.230469 0.273438 -4.28125 C 0.324219 -4.488281 0.875 -5.035156 1.457031 -5.449219 C 1.558594 -5.535156 1.59375 -5.671875 1.507812 -5.789062 C 1.4375 -5.894531 1.285156 -5.925781 1.183594 -5.839844 C -0.308594 -4.78125 -0.292969 -4.230469 -0.152344 -3.992188 C -0.0507812 -3.835938 0.1875 -3.441406 3.871094 -4.746094 C 3.289062 -4.128906 2.550781 -3.375 1.746094 -2.605469 C 0.839844 -2.519531 -0.015625 -2.414062 -1.128906 -2.074219 C -2.484375 -1.679688 -5.566406 -0.292969 -5.960938 1.25 C -6.097656 1.9375 -5.6875 2.742188 -4.882812 2.792969 Z M 1.183594 -2.054688 C -1.078125 0.101562 -3.664062 2.277344 -4.863281 2.3125 C -5.292969 2.3125 -5.601562 1.78125 -5.480469 1.371094 C -5.054688 -0.359375 -0.71875 -1.9375 1.183594 -2.054688 Z M 1.183594 -2.054688" transform="translate(254.295 251.14)"/></g></g></g></svg>